<?xml version="1.0" encoding="UTF-8" standalone="no"?>
<!-- Generator: Adobe Illustrator 24.1.1, SVG Export Plug-In . SVG Version: 6.00 Build 0)  -->

<svg
   xmlns:dc="http://purl.org/dc/elements/1.1/"
   xmlns:cc="http://creativecommons.org/ns#"
   xmlns:rdf="http://www.w3.org/1999/02/22-rdf-syntax-ns#"
   xmlns:svg="http://www.w3.org/2000/svg"
   xmlns="http://www.w3.org/2000/svg"
   xmlns:sodipodi="http://sodipodi.sourceforge.net/DTD/sodipodi-0.dtd"
   xmlns:inkscape="http://www.inkscape.org/namespaces/inkscape"
   version="1.1"
   id="Calque_1"
   x="0px"
   y="0px"
   viewBox="0 0 237.1 32.8"
   xml:space="preserve"
   sodipodi:docname="logo_tweag_black_with_description.svg"
   width="237.10001"
   height="32.799999"
   inkscape:export-filename="/home/matto/Projects/tweag/marketing/design/logo/logo_tweag_black_from_website.png"
   inkscape:export-xdpi="1214.6801"
   inkscape:export-ydpi="1214.6801"
   inkscape:version="0.92.4 (5da689c313, 2019-01-14)"><metadata
   id="metadata40"><rdf:RDF><cc:Work
       rdf:about=""><dc:format>image/svg+xml</dc:format><dc:type
         rdf:resource="http://purl.org/dc/dcmitype/StillImage" /><dc:title /></cc:Work></rdf:RDF></metadata><defs
   id="defs38">
	
	
	
	
	
	
	
	
	
	
	
	
	
	
	
</defs><sodipodi:namedview
   pagecolor="#ffffff"
   bordercolor="#666666"
   borderopacity="1"
   objecttolerance="10"
   gridtolerance="10"
   guidetolerance="10"
   inkscape:pageopacity="0"
   inkscape:pageshadow="2"
   inkscape:window-width="3840"
   inkscape:window-height="2032"
   id="namedview36"
   showgrid="false"
   fit-margin-top="5"
   fit-margin-left="5"
   fit-margin-right="5"
   fit-margin-bottom="5"
   inkscape:zoom="8.5189085"
   inkscape:cx="116.83003"
   inkscape:cy="34.388682"
   inkscape:window-x="0"
   inkscape:window-y="54"
   inkscape:window-maximized="1"
   inkscape:current-layer="Calque_1" />
<style
   type="text/css"
   id="style2">
	.st0{fill-rule:evenodd;clip-rule:evenodd;}
</style>
<path
   inkscape:connector-curvature="0"
   id="path4"
   d="m 153.1,8.7 c 0,1.2 0.7,1.9 1.5,2.5 l 0.9,0.7 c 0.6,0.4 1.1,0.9 1.1,1.6 0,0.7 -0.5,1.2 -1.2,1.2 -0.7,0 -1.2,-0.5 -1.2,-1.4 V 12.6 H 153 v 0.7 c 0,1.5 1.1,2.4 2.4,2.4 1.3,0 2.4,-0.8 2.4,-2.4 0,-1.2 -0.7,-1.8 -1.5,-2.4 l -1,-0.7 c -0.6,-0.4 -1.1,-0.8 -1.1,-1.5 0,-0.7 0.4,-1.1 1.1,-1.1 0.7,0 1.1,0.4 1.1,1.3 v 0.5 h 1.2 V 8.9 c 0,-1.6 -1,-2.4 -2.3,-2.4 -1.2,0 -2.2,0.6 -2.2,2.2 z m 8.7,7 c 1.7,0 3,-1.3 3,-3.1 0,-1.8 -1.3,-3.1 -3,-3.1 -1.7,0 -3,1.3 -3,3.1 0,1.8 1.3,3.1 3,3.1 z m 0,-1.1 c -1,0 -1.8,-0.8 -1.8,-2 0,-1.2 0.8,-2 1.8,-2 1,0 1.8,0.8 1.8,2 0,1.2 -0.7,2 -1.8,2 z m 6,-5.9 c 0,-0.8 0.4,-1.1 1.1,-1.1 0.3,0 0.5,0 0.7,0.1 V 6.6 c -0.2,-0.1 -0.5,-0.1 -0.8,-0.1 -1.3,0 -2.2,0.8 -2.2,2.2 v 0.9 h -1 v 1.1 h 1 v 4.9 h 1.2 v -5 h 2.5 v 3 c 0,1.6 0.8,2.1 2,2.1 0.3,0 0.7,-0.1 0.9,-0.1 v -1.1 c -0.2,0.1 -0.4,0.1 -0.7,0.1 -0.7,0 -1,-0.3 -1,-1.1 v -2.9 h 1.7 v -1 h -1.7 V 7.9 h -1.2 v 1.7 h -2.5 z m 15,0.9 h -1.2 l -1.2,5 -1.3,-5 h -1.5 l -1.3,5 -1.2,-5 H 174 l 1.6,6 h 1.5 l 1.3,-5 1.3,5 h 1.5 z m 4.7,6 h 1.2 v -4.2 c 0,-1.4 -1.2,-1.9 -2.5,-1.9 -1.3,0 -2.6,0.6 -2.6,2.1 h 1.2 c 0,-0.8 0.5,-1.2 1.3,-1.2 0.7,0 1.3,0.3 1.3,0.9 0,1.4 -4,0.1 -4,2.7 0,1.2 1,1.7 2,1.7 0.9,0 1.6,-0.3 2,-1.1 z m -2.8,-1.7 c 0,-1 1.8,-0.8 2.8,-1.2 v 0.4 c 0,1 -0.9,1.6 -1.8,1.6 -0.6,0 -1,-0.3 -1,-0.8 z m 6.9,-1.3 c 0,-1.2 0.7,-1.9 1.8,-1.9 0.2,0 0.5,0 0.6,0.1 V 9.5 c -0.1,0 -0.2,0 -0.4,0 -0.9,0 -1.6,0.4 -2.1,1.2 V 9.6 h -1.2 v 6 h 1.2 v -3 z m 9.1,0 c 0,-1.8 -1.2,-3.1 -3,-3.1 -1.8,0 -3,1.3 -3,3.1 0,1.8 1.2,3.1 3,3.1 1.4,0 2.4,-0.7 2.8,-1.9 h -1.3 c -0.2,0.5 -0.7,0.9 -1.5,0.9 -1,0 -1.7,-0.6 -1.8,-1.7 h 4.7 c 0.1,-0.1 0.1,-0.3 0.1,-0.4 z m -3,-2.1 c 1,0 1.6,0.6 1.8,1.6 H 196 c 0.1,-1 0.8,-1.6 1.7,-1.6 z m -43.2,17.2 v -9 h -1.2 v 9 z m 3,-3.3 c 0,-1.2 0.6,-1.8 1.5,-1.8 0.9,0 1.5,0.6 1.5,1.8 v 3.3 h 1.2 v -3.5 c 0,-1.8 -1,-2.6 -2.3,-2.6 -0.8,0 -1.5,0.4 -1.8,1.1 v -0.9 h -1.2 v 6 h 1.2 z m 7,0 c 0,-1.2 0.6,-1.8 1.5,-1.8 0.9,0 1.5,0.6 1.5,1.8 v 3.3 h 1.2 v -3.5 c 0,-1.8 -1,-2.6 -2.3,-2.6 -0.8,0 -1.5,0.4 -1.8,1.1 v -0.9 h -1.2 v 6 h 1.2 z m 8.4,3.4 c 1.7,0 3,-1.3 3,-3.1 0,-1.8 -1.3,-3.1 -3,-3.1 -1.7,0 -3,1.3 -3,3.1 0,1.8 1.3,3.1 3,3.1 z m 0,-1.1 c -1,0 -1.8,-0.8 -1.8,-2 0,-1.2 0.8,-2 1.8,-2 1,0 1.8,0.8 1.8,2 0,1.2 -0.8,2 -1.8,2 z m 9.4,-5 H 181 l -1.6,5 -1.6,-5 h -1.2 l 2,6 h 1.7 z m 4.7,6 h 1.2 v -4.2 c 0,-1.4 -1.2,-1.9 -2.5,-1.9 -1.3,0 -2.6,0.6 -2.6,2.1 h 1.2 c 0,-0.8 0.5,-1.2 1.3,-1.2 0.7,0 1.3,0.3 1.3,0.9 0,1.4 -4,0.1 -4,2.7 0,1.2 1,1.7 2,1.7 0.9,0 1.6,-0.3 2,-1.1 z M 184.1,26 c 0,-1 1.8,-0.8 2.8,-1.2 v 0.4 c 0,1 -0.9,1.6 -1.8,1.6 -0.5,0 -1,-0.3 -1,-0.8 z m 7.2,-0.4 v -2.9 h 1.7 v -1.1 h -1.7 v -1.8 h -1.2 v 1.8 h -1 v 1.1 h 1 v 3 c 0,1.6 0.8,2.1 2,2.1 0.3,0 0.7,-0.1 0.9,-0.1 v -1.1 c -0.2,0.1 -0.4,0.1 -0.7,0.1 -0.6,0 -1,-0.3 -1,-1.1 z m 3.8,-5.2 c 0.5,0 0.8,-0.3 0.8,-0.8 0,-0.5 -0.3,-0.8 -0.8,-0.8 -0.5,0 -0.8,0.3 -0.8,0.8 0,0.4 0.3,0.8 0.8,0.8 z m 0.6,7.3 v -6 h -1.2 v 6 z m 4.4,0.1 c 1.7,0 3,-1.3 3,-3.1 0,-1.8 -1.3,-3.1 -3,-3.1 -1.7,0 -3,1.3 -3,3.1 -0.1,1.8 1.2,3.1 3,3.1 z m 0,-1.1 c -1,0 -1.8,-0.8 -1.8,-2 0,-1.2 0.8,-2 1.8,-2 1,0 1.8,0.8 1.8,2 0,1.2 -0.8,2 -1.8,2 z m 5.5,-2.3 c 0,-1.2 0.6,-1.8 1.5,-1.8 0.9,0 1.5,0.6 1.5,1.8 v 3.3 h 1.2 v -3.5 c 0,-1.8 -1,-2.6 -2.3,-2.6 -0.8,0 -1.5,0.4 -1.8,1.1 v -0.9 h -1.2 v 6 h 1.2 z m 12.7,2.2 h -2.9 v -7.9 h -1.2 v 9 h 4.1 z m 4.9,1.1 h 1.2 v -4.2 c 0,-1.4 -1.2,-1.9 -2.5,-1.9 -1.3,0 -2.6,0.6 -2.6,2.1 h 1.2 c 0,-0.8 0.5,-1.2 1.3,-1.2 0.7,0 1.3,0.3 1.3,0.9 0,1.4 -4,0.1 -4,2.7 0,1.2 1,1.7 2,1.7 0.9,0 1.6,-0.3 2,-1.1 z M 220.3,26 c 0,-1 1.8,-0.8 2.8,-1.2 v 0.4 c 0,1 -0.9,1.6 -1.8,1.6 -0.5,0 -1,-0.3 -1,-0.8 z m 11.8,-1.3 c 0,-1.8 -1.2,-3.1 -2.9,-3.1 -0.8,0 -1.5,0.4 -2,1 V 18.7 H 226 v 9 h 1.2 v -0.9 c 0.5,0.6 1.2,1 2,1 1.6,0 2.9,-1.3 2.9,-3.1 z m -3.1,-2 c 1,0 1.8,0.8 1.8,2 0,1.2 -0.8,2 -1.8,2 -1,0 -1.8,-0.8 -1.8,-2 0,-1.2 0.8,-2 1.8,-2 z" /><g
   id="g52"><path
     class="st0"
     d="m 21.1,5 v 0 h 6.6 v 5.7 h -6.6 c -1,0 -1.9,0.8 -1.9,1.9 v 15.1 h -5.7 v -15.1 0 c 0,-1 0.8,-1.9 1.9,-1.9 h 0.5 1.4 c 1,0 1.9,-0.8 1.9,-1.9 V 6.9 C 19.2,5.8 20,5 21.1,5 Z"
     id="path6"
     inkscape:connector-curvature="0"
     style="clip-rule:evenodd;fill-rule:evenodd" /><polygon
     transform="translate(5,5)"
     class="st0"
     points="8.5,5.7 0,5.7 0,0 8.5,0 "
     id="polygon8"
     style="clip-rule:evenodd;fill-rule:evenodd" /><path
     class="st0"
     d="M 58.9,20.1 V 5 H 53.2 V 22 H 57 c 1,0 1.9,-0.8 1.9,-1.9 z"
     id="path10"
     inkscape:connector-curvature="0"
     style="clip-rule:evenodd;fill-rule:evenodd" /><path
     class="st0"
     d="m 38.1,27.7 v 0 h 3.8 V 22 h -3.8 c -1,0 -1.9,-0.8 -1.9,-1.9 V 5 h -5.7 v 15.1 0 c 0,1 0.8,1.9 1.9,1.9 h 0.5 1.4 c 1,0 1.9,0.8 1.9,1.9 v 1.9 c 0,1 0.8,1.9 1.9,1.9 z"
     id="path12"
     inkscape:connector-curvature="0"
     style="clip-rule:evenodd;fill-rule:evenodd" /><path
     class="st0"
     d="m 49.4,27.7 v 0 h 3.8 V 22 h -3.8 c -1,0 -1.9,-0.8 -1.9,-1.9 V 5 h -5.7 v 15.1 0 c 0,1 0.8,1.9 1.9,1.9 h 0.5 1.4 c 1,0 1.9,0.8 1.9,1.9 v 1.9 c 0,1 0.9,1.9 1.9,1.9 z"
     id="path14"
     inkscape:connector-curvature="0"
     style="clip-rule:evenodd;fill-rule:evenodd" /><path
     class="st0"
     d="m 109.9,12.6 v 15.1 h -5.7 v -17 h 3.8 c 1,0 1.9,0.8 1.9,1.9 z"
     id="path16"
     inkscape:connector-curvature="0"
     style="clip-rule:evenodd;fill-rule:evenodd" /><path
     class="st0"
     d="m 94.8,5 v 0 h 7.6 c 1,0 1.9,0.8 1.9,1.9 v 3.8 h -9.4 c -1,0 -1.9,0.8 -1.9,1.9 v 15.1 h -5.7 v -15.1 0 c 0,-1 0.8,-1.9 1.9,-1.9 h 0.5 1.3 c 1,0 1.9,-0.8 1.9,-1.9 V 6.9 C 92.9,5.8 93.7,5 94.8,5 Z"
     id="path18"
     inkscape:connector-curvature="0"
     style="clip-rule:evenodd;fill-rule:evenodd" /><rect
     x="91.199997"
     y="18.200001"
     class="st0"
     width="15.8"
     height="3.8"
     id="rect20"
     style="clip-rule:evenodd;fill-rule:evenodd" /><path
     class="st0"
     d="m 69.3,27.7 v 0 H 84.4 V 22 H 69.3 c -1,0 -1.9,-0.8 -1.9,-1.9 v -1.9 -7.5 h -3.8 c -1,0 -1.9,0.8 -1.9,1.9 v 5.7 1.9 0 c 0,1 0.8,1.9 1.9,1.9 h 0.5 1.4 c 1,0 1.9,0.8 1.9,1.9 v 1.9 c 0,0.9 0.8,1.8 1.9,1.8 z"
     id="path22"
     inkscape:connector-curvature="0"
     style="clip-rule:evenodd;fill-rule:evenodd" /><path
     class="st0"
     d="M 84.4,5 H 69.3 c -1,0 -1.9,0.8 -1.9,1.9 v 3.8 h 17 c 0,0 0,-5.7 0,-5.7 z"
     id="path24"
     inkscape:connector-curvature="0"
     style="clip-rule:evenodd;fill-rule:evenodd" /><polygon
     transform="translate(5,5)"
     class="st0"
     points="76.5,13.2 60.4,13.2 60.4,9.4 76.5,9.4 "
     id="polygon26"
     style="clip-rule:evenodd;fill-rule:evenodd" /><path
     class="st0"
     d="m 120.3,27.7 v 0 h 10.4 c 1,0 1.9,-0.8 1.9,-1.9 V 22 h -12.3 c -1,0 -1.9,-0.8 -1.9,-1.9 v -1.9 -7.5 h -3.8 c -1,0 -1.9,0.8 -1.9,1.9 v 5.7 1.9 0 c 0,1 0.8,1.9 1.9,1.9 h 0.5 1.4 c 1,0 1.9,0.8 1.9,1.9 v 1.9 c 0,0.9 0.8,1.8 1.9,1.8 z"
     id="path28"
     inkscape:connector-curvature="0"
     style="clip-rule:evenodd;fill-rule:evenodd" /><path
     class="st0"
     d="m 135.4,5 h -15.1 c -1,0 -1.9,0.8 -1.9,1.9 v 3.8 h 17 z"
     id="path30"
     inkscape:connector-curvature="0"
     style="clip-rule:evenodd;fill-rule:evenodd" /><path
     class="st0"
     d="m 132.6,18.2 h -8.5 v -3.8 h 12.3 c 1,0 1.9,0.9 1.9,1.9 v 1.9 3.8 h -5.7 c 0,0 0,-3.8 0,-3.8 z"
     id="path32"
     inkscape:connector-curvature="0"
     style="clip-rule:evenodd;fill-rule:evenodd" /></g>
</svg>